{
  "accessors": [
    {
      "bufferView": 0,
      "componentType": 5126,
      "count": 946,
      "type": "VEC3",
      "max": [
        0.042701728641986847,
        0.047147590667009354,
        0.025436136871576309
      ],
      "min": [
        -0.06474333256483078,
        -0.045233733952045441,
        -0.027808662503957748
      ]
    },
    {
      "bufferView": 1,
      "componentType": 5126,
      "count": 946,
      "type": "VEC3",
      "max": [
        0.992494523525238,
        0.99855190515518188,
        0.99637788534164429
      ],
      "min": [
        -1.0,
        -0.99855190515518188,
        -0.99957245588302612
      ]
    },
    {
      "bufferView": 2,
      "componentType": 5126,
      "count": 946,
      "type": "VEC4",
      "max": [
        1.0,
        0.98432707786560059,
        0.9184454083442688,
        1.0
      ],
      "min": [
        -0.99663364887237549,
        -0.98432701826095581,
        -0.99999594688415527,
        -1.0
      ]
    },
    {
      "bufferView": 3,
      "componentType": 5126,
      "count": 946,
      "type": "VEC2",
      "max": [
        1.2357146739959717,
        2.0948028564453125
      ],
      "min": [
        -0.98552036285400391,
        -0.78421759605407715
      ]
    },
    {
      "bufferView": 4,
      "componentType": 5125,
      "count": 1452,
      "type": "SCALAR",
      "max": [
        945.0
      ],
      "min": [
        0.0
      ]
    },
    {
      "bufferView": 5,
      "componentType": 5126,
      "count": 154,
      "type": "SCALAR",
      "max": [
        5.1000003814697266
      ],
      "min": [
        0.0
      ]
    },
    {
      "bufferView": 6,
      "componentType": 5126,
      "count": 154,
      "type": "VEC3",
      "max": [
        -0.47999998927116394,
        0.0,
        12.760000228881836
      ],
      "min": [
        -0.47999998927116394,
        0.0,
        12.760000228881836
      ]
    },
    {
      "bufferView": 7,
      "componentType": 5126,
      "count": 154,
      "type": "VEC4",
      "max": [
        0.0,
        0.93203824758529663,
        0.0,
        -0.36236006021499634
      ],
      "min": [
        0.0,
        0.93203824758529663,
        0.0,
        -0.36236006021499634
      ]
    },
    {
      "bufferView": 8,
      "componentType": 5126,
      "count": 154,
      "type": "VEC3",
      "max": [
        149.09333801269531,
        149.09333801269531,
        149.09333801269531
      ],
      "min": [
        149.09333801269531,
        149.09333801269531,
        149.09333801269531
      ]
    },
    {
      "bufferView": 9,
      "componentType": 5126,
      "count": 154,
      "type": "SCALAR",
      "max": [
        5.1000003814697266
      ],
      "min": [
        0.0
      ]
    },
    {
      "bufferView": 10,
      "componentType": 5126,
      "count": 154,
      "type": "VEC3",
      "max": [
        -0.47999998927116394,
        0.0,
        12.760000228881836
      ],
      "min": [
        -0.47999998927116394,
        0.0,
        12.760000228881836
      ]
    },
    {
      "bufferView": 11,
      "componentType": 5126,
      "count": 154,
      "type": "VEC4",
      "max": [
        0.0,
        0.93203824758529663,
        0.0,
        -0.36236006021499634
      ],
      "min": [
        0.0,
        0.93203824758529663,
        0.0,
        -0.36236006021499634
      ]
    },
    {
      "bufferView": 12,
      "componentType": 5126,
      "count": 154,
      "type": "VEC3",
      "max": [
        149.09333801269531,
        149.09333801269531,
        149.09333801269531
      ],
      "min": [
        149.09333801269531,
        149.09333801269531,
        149.09333801269531
      ]
    },
    {
      "bufferView": 13,
      "componentType": 5126,
      "count": 22,
      "type": "MAT4"
    },
    {
      "bufferView": 14,
      "componentType": 5123,
      "count": 946,
      "type": "VEC4",
      "max": [
        20.0,
        21.0,
        21.0,
        21.0
      ],
      "min": [
        0.0,
        0.0,
        0.0,
        0.0
      ]
    },
    {
      "bufferView": 15,
      "componentType": 5126,
      "count": 946,
      "type": "VEC4",
      "max": [
        0.7249295711517334,
        0.48157909512519836,
        0.27266272902488708,
        0.23144887387752533
      ],
      "min": [
        0.2662956714630127,
        0.13268400728702545,
        0.0026946503203362226,
        0.0
      ]
    }
  ],
  "animations": [
    {
      "channels": [
        {
          "sampler": 0,
          "target": {
            "node": 0,
            "path": "translation"
          }
        },
        {
          "sampler": 1,
          "target": {
            "node": 0,
            "path": "rotation"
          }
        },
        {
          "sampler": 2,
          "target": {
            "node": 0,
            "path": "scale"
          }
        },
        {
          "sampler": 3,
          "target": {
            "node": 0,
            "path": "translation"
          }
        },
        {
          "sampler": 4,
          "target": {
            "node": 0,
            "path": "rotation"
          }
        },
        {
          "sampler": 5,
          "target": {
            "node": 0,
            "path": "scale"
          }
        }
      ],
      "samplers": [
        {
          "input": 5,
          "output": 6
        },
        {
          "input": 5,
          "output": 7
        },
        {
          "input": 5,
          "output": 8
        },
        {
          "input": 9,
          "output": 10
        },
        {
          "input": 9,
          "output": 11
        },
        {
          "input": 9,
          "output": 12
        }
      ],
      "name": "Take 001"
    }
  ],
  "asset": {
    "generator": "UnityGLTF (2018.2.19f1)",
    "version": "2.0"
  },
  "buffers": [
    {
      "uri": "Unity2Skfb.bin",
      "byteLength": 88880
    }
  ],
  "bufferViews": [
    {
      "buffer": 0,
      "byteLength": 11352
    },
    {
      "buffer": 0,
      "byteOffset": 11352,
      "byteLength": 11352
    },
    {
      "buffer": 0,
      "byteOffset": 22704,
      "byteLength": 15136
    },
    {
      "buffer": 0,
      "byteOffset": 37840,
      "byteLength": 7568
    },
    {
      "buffer": 0,
      "byteOffset": 45408,
      "byteLength": 5808
    },
    {
      "buffer": 0,
      "byteOffset": 51216,
      "byteLength": 616
    },
    {
      "buffer": 0,
      "byteOffset": 51832,
      "byteLength": 1848
    },
    {
      "buffer": 0,
      "byteOffset": 53680,
      "byteLength": 2464
    },
    {
      "buffer": 0,
      "byteOffset": 56144,
      "byteLength": 1848
    },
    {
      "buffer": 0,
      "byteOffset": 57992,
      "byteLength": 616
    },
    {
      "buffer": 0,
      "byteOffset": 58608,
      "byteLength": 1848
    },
    {
      "buffer": 0,
      "byteOffset": 60456,
      "byteLength": 2464
    },
    {
      "buffer": 0,
      "byteOffset": 62920,
      "byteLength": 1848
    },
    {
      "buffer": 0,
      "byteOffset": 64768,
      "byteLength": 1408
    },
    {
      "buffer": 0,
      "byteOffset": 66176,
      "byteLength": 7568
    },
    {
      "buffer": 0,
      "byteOffset": 73744,
      "byteLength": 15136
    }
  ],
  "materials": [
    {
      "pbrMetallicRoughness": {
        "baseColorFactor": [
          0.9725491,
          0.9725491,
          0.9725491,
          1.0
        ],
        "metallicFactor": 0.0
      },
      "emissiveFactor": [
        0.0,
        0.0,
        0.0
      ],
      "name": "Mat_Bear"
    }
  ],
  "meshes": [
    {
      "primitives": [
        {
          "attributes": {
            "POSITION": 0,
            "NORMAL": 1,
            "TANGENT": 2,
            "TEXCOORD_0": 3,
            "JOINTS_0": 14,
            "WEIGHTS_0": 15
          },
          "indices": 4,
          "material": 0
        }
      ],
      "name": "Low_Poly_Bear_1"
    }
  ],
  "nodes": [
    {
      "children": [
        1,
        2,
        26
      ],
      "rotation": [
        0.0,
        0.932038248,
        0.0,
        0.36236006
      ],
      "scale": [
        149.093414,
        149.093338,
        149.093414
      ],
      "translation": [
        -0.48,
        0.0,
        -12.76
      ],
      "name": "low_poly_bear2"
    },
    {
      "skin": 0,
      "mesh": 0,
      "rotation": [
        0.710454464,
        0.7037423,
        -0.000786558,
        -0.00079406
      ],
      "translation": [
        -0.00125640433,
        0.06443434,
        -0.00375265256
      ],
      "name": "Low_Poly_Bear_1"
    },
    {
      "children": [
        3,
        4,
        5,
        6,
        7,
        8,
        9,
        10,
        11,
        12,
        13,
        14,
        15,
        16,
        17,
        18,
        19,
        20,
        21,
        22,
        23,
        24,
        25
      ],
      "rotation": [
        0.0,
        0.0,
        0.0,
        -1.0
      ],
      "name": "QuickRigCharacter_Guides"
    },
    {
      "rotation": [
        0.0,
        0.0,
        0.0,
        -1.0
      ],
      "translation": [
        -0.000147333136,
        0.0977705047,
        -0.0144653209
      ],
      "name": "Head"
    },
    {
      "rotation": [
        0.0,
        0.0,
        0.0,
        -1.0
      ],
      "translation": [
        -0.000147333136,
        0.03912455,
        0.0005685472
      ],
      "name": "Hips"
    },
    {
      "rotation": [
        0.0,
        0.0,
        0.0,
        -1.0
      ],
      "translation": [
        -0.0140008088,
        0.07606058,
        -0.010771066
      ],
      "name": "LeftArm"
    },
    {
      "rotation": [
        0.0,
        0.0,
        0.0,
        -1.0
      ],
      "translation": [
        -0.0102987951,
        0.00016601324,
        0.006189313
      ],
      "name": "LeftFoot"
    },
    {
      "rotation": [
        0.0,
        0.0,
        0.0,
        -1.0
      ],
      "translation": [
        -0.02948707,
        0.0718373358,
        -0.0137185473
      ],
      "name": "LeftForeArm"
    },
    {
      "rotation": [
        0.0,
        0.0,
        0.0,
        -1.0
      ],
      "translation": [
        -0.0441041254,
        0.0761746,
        -0.0163854528
      ],
      "name": "LeftHand"
    },
    {
      "rotation": [
        0.0,
        0.0,
        0.0,
        -1.0
      ],
      "translation": [
        -0.009712472,
        0.01989818,
        -0.0034804102
      ],
      "name": "LeftLeg"
    },
    {
      "rotation": [
        0.0,
        0.0,
        0.0,
        -1.0
      ],
      "translation": [
        -0.006740385,
        0.07705915,
        -0.008071739
      ],
      "name": "LeftShoulder"
    },
    {
      "rotation": [
        0.0,
        0.0,
        0.0,
        -1.0
      ],
      "translation": [
        -0.0118811438,
        1.9295685E-05,
        -0.004538748
      ],
      "name": "LeftToeBase"
    },
    {
      "rotation": [
        0.0,
        0.0,
        0.0,
        -1.0
      ],
      "translation": [
        -0.009932247,
        0.0391653478,
        0.0008138944
      ],
      "name": "LeftUpLeg"
    },
    {
      "rotation": [
        0.0,
        0.0,
        0.0,
        -1.0
      ],
      "translation": [
        -0.000147333136,
        0.0836868,
        -0.007945007
      ],
      "name": "Neck"
    },
    {
      "rotation": [
        0.0,
        0.0,
        0.0,
        -1.0
      ],
      "translation": [
        -0.000147333136,
        -0.000448069564,
        -0.00493824575
      ],
      "name": "Reference"
    },
    {
      "rotation": [
        0.0,
        0.0,
        0.0,
        -1.0
      ],
      "translation": [
        0.013706143,
        0.07606058,
        -0.010771066
      ],
      "name": "RightArm"
    },
    {
      "rotation": [
        0.0,
        0.0,
        0.0,
        -1.0
      ],
      "translation": [
        0.0100041293,
        0.00016601324,
        0.006189313
      ],
      "name": "RightFoot"
    },
    {
      "rotation": [
        0.0,
        0.0,
        0.0,
        -1.0
      ],
      "translation": [
        0.0291924048,
        0.0718373358,
        -0.0137185473
      ],
      "name": "RightForeArm"
    },
    {
      "rotation": [
        0.0,
        0.0,
        0.0,
        -1.0
      ],
      "translation": [
        0.0438094623,
        0.0761746,
        -0.0163854528
      ],
      "name": "RightHand"
    },
    {
      "rotation": [
        0.0,
        0.0,
        0.0,
        -1.0
      ],
      "translation": [
        0.009417806,
        0.01989818,
        -0.0034804102
      ],
      "name": "RightLeg"
    },
    {
      "rotation": [
        0.0,
        0.0,
        0.0,
        -1.0
      ],
      "translation": [
        0.006445719,
        0.07705915,
        -0.008071739
      ],
      "name": "RightShoulder"
    },
    {
      "rotation": [
        0.0,
        0.0,
        0.0,
        -1.0
      ],
      "translation": [
        0.011586477,
        1.9295685E-05,
        -0.004538748
      ],
      "name": "RightToeBase"
    },
    {
      "rotation": [
        0.0,
        0.0,
        0.0,
        -1.0
      ],
      "translation": [
        0.009637581,
        0.0391653478,
        0.0008138944
      ],
      "name": "RightUpLeg"
    },
    {
      "rotation": [
        0.0,
        0.0,
        0.0,
        -1.0
      ],
      "translation": [
        -0.000147333136,
        0.0469828248,
        0.0006351655
      ],
      "name": "Spine"
    },
    {
      "rotation": [
        0.0,
        0.0,
        0.0,
        -1.0
      ],
      "translation": [
        -0.000147333136,
        0.054542888,
        -0.001239672
      ],
      "name": "Spine1"
    },
    {
      "rotation": [
        0.0,
        0.0,
        0.0,
        -1.0
      ],
      "translation": [
        -0.000147333136,
        0.0621029548,
        -0.00311450963
      ],
      "name": "Spine2"
    },
    {
      "children": [
        27
      ],
      "rotation": [
        0.0,
        0.0,
        0.0,
        -1.0
      ],
      "translation": [
        -0.000147333136,
        -0.000448069564,
        -0.00493824575
      ],
      "name": "QuickRigCharacter_Reference"
    },
    {
      "children": [
        28,
        32,
        36
      ],
      "rotation": [
        0.0,
        0.0,
        0.0,
        -1.0
      ],
      "translation": [
        0.0,
        0.03957262,
        0.005506793
      ],
      "name": "QuickRigCharacter_Hips"
    },
    {
      "children": [
        29
      ],
      "rotation": [
        0.0,
        0.0,
        0.0,
        -1.0
      ],
      "translation": [
        -0.009784914,
        4.079938E-05,
        0.0002453472
      ],
      "name": "QuickRigCharacter_LeftUpLeg"
    },
    {
      "children": [
        30
      ],
      "rotation": [
        0.0,
        0.0,
        0.0,
        -1.0
      ],
      "translation": [
        0.000219775175,
        -0.0192671679,
        -0.00429430464
      ],
      "name": "QuickRigCharacter_LeftLeg"
    },
    {
      "children": [
        31
      ],
      "rotation": [
        0.0,
        0.0,
        0.0,
        -1.0
      ],
      "translation": [
        -0.0005863242,
        -0.0197321679,
        0.009669723
      ],
      "name": "QuickRigCharacter_LeftFoot"
    },
    {
      "rotation": [
        0.0,
        0.0,
        0.0,
        -1.0
      ],
      "translation": [
        -0.00158234744,
        -0.000146717546,
        -0.0107280612
      ],
      "name": "QuickRigCharacter_LeftToeBase"
    },
    {
      "children": [
        33
      ],
      "rotation": [
        0.0,
        0.0,
        0.0,
        -1.0
      ],
      "translation": [
        0.009784914,
        4.079938E-05,
        0.0002453472
      ],
      "name": "QuickRigCharacter_RightUpLeg"
    },
    {
      "children": [
        34
      ],
      "rotation": [
        0.0,
        0.0,
        0.0,
        -1.0
      ],
      "translation": [
        -0.000219775175,
        -0.0192671679,
        -0.00429430464
      ],
      "name": "QuickRigCharacter_RightLeg"
    },
    {
      "children": [
        35
      ],
      "rotation": [
        0.0,
        4.189127E-05,
        0.0,
        -1.0
      ],
      "translation": [
        0.0005863242,
        -0.0197321679,
        0.009669723
      ],
      "name": "QuickRigCharacter_RightFoot"
    },
    {
      "rotation": [
        2.54171682E-05,
        0.0,
        0.0,
        -1.0
      ],
      "translation": [
        0.0015814486,
        -0.000146717546,
        -0.0107281934
      ],
      "name": "QuickRigCharacter_RightToeBase"
    },
    {
      "children": [
        37
      ],
      "rotation": [
        0.0,
        0.0,
        0.0,
        -1.0
      ],
      "translation": [
        0.0,
        0.007858275,
        6.661825E-05
      ],
      "name": "QuickRigCharacter_Spine"
    },
    {
      "children": [
        38
      ],
      "rotation": [
        0.0,
        0.0,
        0.0,
        -1.0
      ],
      "translation": [
        0.0,
        0.007560065,
        -0.00187483756
      ],
      "name": "QuickRigCharacter_Spine1"
    },
    {
      "children": [
        39,
        43,
        45
      ],
      "rotation": [
        0.0,
        0.0,
        0.0,
        -1.0
      ],
      "translation": [
        0.0,
        0.007560065,
        -0.00187483756
      ],
      "name": "QuickRigCharacter_Spine2"
    },
    {
      "children": [
        40
      ],
      "rotation": [
        0.0,
        0.0,
        6.416546E-06,
        -1.0
      ],
      "translation": [
        -0.006593052,
        0.0149561986,
        -0.00495723
      ],
      "name": "QuickRigCharacter_LeftShoulder"
    },
    {
      "children": [
        41
      ],
      "rotation": [
        0.0,
        0.0,
        -6.416546E-06,
        -1.0
      ],
      "translation": [
        -0.00726041,
        -0.000998667,
        -0.002699326
      ],
      "name": "QuickRigCharacter_LeftArm"
    },
    {
      "children": [
        42
      ],
      "rotation": [
        0.0,
        0.0,
        0.0,
        -1.0
      ],
      "translation": [
        -0.0154862627,
        -0.004223245,
        -0.002947482
      ],
      "name": "QuickRigCharacter_LeftForeArm"
    },
    {
      "rotation": [
        0.0,
        0.0,
        0.0,
        -1.0
      ],
      "translation": [
        -0.0146170575,
        0.00433726842,
        -0.00266690645
      ],
      "name": "QuickRigCharacter_LeftHand"
    },
    {
      "children": [
        44
      ],
      "rotation": [
        0.0,
        0.0,
        0.0,
        -1.0
      ],
      "translation": [
        0.0,
        0.0215838458,
        -0.00483049732
      ],
      "name": "QuickRigCharacter_Neck"
    },
    {
      "rotation": [
        0.0,
        0.0,
        0.0,
        -1.0
      ],
      "translation": [
        0.0,
        0.0140837049,
        -0.00652031461
      ],
      "name": "QuickRigCharacter_Head"
    },
    {
      "children": [
        46
      ],
      "rotation": [
        0.0,
        0.0,
        -2.02315168E-05,
        -1.0
      ],
      "translation": [
        0.006593052,
        0.0149561986,
        -0.00495723
      ],
      "name": "QuickRigCharacter_RightShoulder"
    },
    {
      "children": [
        47
      ],
      "rotation": [
        0.0,
        0.0,
        2.02315168E-05,
        -1.0
      ],
      "translation": [
        0.00726038264,
        -0.0009988676,
        -0.002699326
      ],
      "name": "QuickRigCharacter_RightArm"
    },
    {
      "children": [
        48
      ],
      "rotation": [
        0.0,
        0.0,
        0.0,
        -1.0
      ],
      "translation": [
        0.0154862627,
        -0.004223245,
        -0.002947482
      ],
      "name": "QuickRigCharacter_RightForeArm"
    },
    {
      "rotation": [
        0.0,
        0.0,
        0.0,
        -1.0
      ],
      "translation": [
        0.0146170575,
        0.00433726842,
        -0.00266690645
      ],
      "name": "QuickRigCharacter_RightHand"
    }
  ],
  "scene": 0,
  "scenes": [
    {
      "nodes": [
        0
      ],
      "name": "Unity2Skfb"
    }
  ],
  "skins": [
    {
      "inverseBindMatrices": 13,
      "joints": [
        27,
        28,
        29,
        30,
        31,
        32,
        33,
        34,
        35,
        36,
        37,
        38,
        39,
        40,
        41,
        42,
        45,
        46,
        47,
        48,
        43,
        44
      ]
    }
  ]
}